<?xml version="1.0" encoding="iso-8859-1"?>
<!-- Uploaded to: SVG Repo, www.svgrepo.com, Generator: SVG Repo Mixer Tools -->
<svg fill="#000000" height="800px" width="800px" version="1.1" id="Layer_1" xmlns="http://www.w3.org/2000/svg" xmlns:xlink="http://www.w3.org/1999/xlink" 
	 viewBox="0 0 511.998 511.998" xml:space="preserve">
<g>
	<g>
		<path d="M504.643,457.03l-127.23-127.229c-9.793-9.793-25.729-9.794-35.524,0l-0.378,0.378l-30.392-30.393
			c29.15-31.861,46.961-74.259,46.961-120.742c0-98.723-80.317-179.04-179.04-179.04S0,80.321,0,179.044
			s80.317,179.04,179.04,179.04c46.484,0,88.883-17.811,120.742-46.961l30.392,30.393l-0.378,0.378
			c-4.745,4.744-7.357,11.052-7.357,17.762s2.613,13.018,7.357,17.762l127.229,127.23c4.898,4.897,11.329,7.345,17.762,7.345
			s12.865-2.449,17.762-7.345l12.092-12.092c4.744-4.744,7.357-11.052,7.357-17.762C511.998,468.085,509.387,461.774,504.643,457.03
			z M179.04,342.05c-89.882,0-163.006-73.124-163.006-163.006S89.157,16.038,179.04,16.038s163.006,73.124,163.006,163.006
			S268.922,342.05,179.04,342.05z M493.305,481.216l-12.092,12.092c-3.542,3.542-9.307,3.543-12.849,0l-127.229-127.23
			c-1.716-1.716-2.662-3.997-2.662-6.424c0-2.427,0.945-4.708,2.662-6.425l12.092-12.092c3.542-3.541,9.306-3.542,12.849,0
			l127.229,127.23c1.716,1.716,2.662,3.998,2.662,6.424S495.022,479.5,493.305,481.216z"/>
	</g>
</g>
<g>
	<g>
		<path d="M179.04,34.209c-79.862,0-144.835,64.973-144.835,144.835S99.177,323.879,179.04,323.879s144.835-64.974,144.835-144.835
			S258.902,34.209,179.04,34.209z M287.789,110.101c1.985,3.117,3.836,6.327,5.551,9.619h-5.631c-2.724,0-5.451-0.645-7.887-1.862
			l-6.31-3.154c-0.432-0.216-0.873-0.413-1.314-0.609c0.238-1.127,0.369-2.283,0.369-3.461c0-0.293,0.238-0.532,0.532-0.532H287.789
			z M246.914,84.982v-8.551c0-0.294,0.239-0.534,0.534-0.534h8.647c7.163,5.364,13.746,11.461,19.648,18.17H273.1
			c-9.134,0-16.566,7.431-16.566,16.566c0,0.055,0,0.22-0.156,0.376c-0.082,0.082-0.17,0.117-0.242,0.134l-25.79,0.009
			c-0.294,0-0.534-0.239-0.534-0.534v-8.532c0-0.294,0.239-0.534,0.534-0.534C239.482,101.55,246.914,94.118,246.914,84.982z
			 M91.725,84.447h10.354c0.295,0,0.534,0.241,0.534,0.534v8.551c0,2.957,1.627,5.674,4.234,7.068
			c2.606,1.396,5.77,1.242,8.229-0.398l23.497-15.666c0.089-0.059,0.192-0.09,0.298-0.09h29.215c0.078,0,0.261,0,0.421,0.205
			c0.16,0.205,0.117,0.383,0.097,0.459l-4.276,17.102c-0.06,0.238-0.273,0.405-0.518,0.405h-10.426
			c-2.815,0-5.426,1.477-6.874,3.893l-23.318,38.863h-4.013c-13.851,0-25.119,11.268-25.119,25.119v8.763
			c-4.122-0.764-7.85-2.949-10.519-6.285l-26.968-33.838C63.487,117.977,75.734,99.217,91.725,84.447z M179.04,307.846
			c-71.022,0-128.802-57.78-128.802-128.802c0-6.856,0.544-13.586,1.581-20.154l19.195,24.085
			c6.425,8.031,16.008,12.636,26.293,12.636h22.409v17.035c0,8.418,4.182,16.231,11.186,20.9l15.749,10.5l13.967,41.902
			c2.448,7.343,9.293,12.277,17.034,12.277c9.901,0,17.955-8.055,17.955-17.955v-29.497l12.25-12.25
			c3.13-3.13,4.853-7.29,4.853-11.715v-13.561c0-9.136-7.432-16.568-16.568-16.568h-14.675l-19.326-12.883
			c-4.14-2.76-8.958-4.219-13.933-4.219h-38.112v-9.086c0-5.01,4.076-9.086,9.086-9.086h8.551c2.815,0,5.426-1.477,6.874-3.893
			l23.318-38.863h5.886c7.616,0,14.226-5.161,16.073-12.55l4.276-17.102c1.246-4.983,0.148-10.164-3.014-14.214
			c-3.162-4.049-7.922-6.372-13.059-6.372h-29.215c-3.281,0-6.458,0.962-9.19,2.783l-12.063,8.04
			c-1.408-3.796-4.174-6.93-7.698-8.834c19.983-12.758,43.702-20.16,69.118-20.16c20.703,0,40.278,4.918,57.627,13.635
			c-3.535,3.041-5.786,7.536-5.786,12.553v8.551c0,0.294-0.239,0.534-0.534,0.534c-9.136,0-16.568,7.432-16.568,16.568v8.532
			c0,5.483,2.69,10.34,6.809,13.358c-4.752,6.017-7.292,13.408-7.202,21.198l0.099,8.609c0.212,18.351,15.315,33.281,33.668,33.281
			h0.295c5.01,0,9.086,4.076,9.086,9.086v11.402c0,5.399,1.784,10.752,5.024,15.071l22.832,30.442
			C261.057,286.172,222.534,307.846,179.04,307.846z M135.749,212.647v-17.035h12.459c1.8,0,3.542,0.528,5.04,1.526l21.345,14.23
			c1.317,0.878,2.865,1.347,4.447,1.347h17.102c0.295,0,0.534,0.241,0.534,0.534v13.561c0,0.142-0.056,0.277-0.156,0.378
			l-14.598,14.598c-1.504,1.504-2.348,3.542-2.348,5.668v32.817c0,1.059-0.863,1.922-1.922,1.922c-0.828,0-1.561-0.528-1.823-1.314
			l-14.837-44.512c-0.563-1.691-1.675-3.146-3.159-4.135l-18.038-12.025C137.262,218.517,135.749,215.691,135.749,212.647z
			 M274.385,212.998c-1.172-1.563-1.817-3.498-1.817-5.451v-11.402c0-13.851-11.268-25.119-25.119-25.119h-0.295
			c-9.614,0-17.525-7.82-17.636-17.434l-0.099-8.609c-0.056-4.772,1.768-9.262,5.134-12.644c3.113-3.129,7.187-4.914,11.572-5.149
			l12.39-0.01c2.703,0.009,5.411,0.652,7.829,1.862l6.31,3.155c4.651,2.325,9.857,3.554,15.058,3.554h12.639
			c4.845,13.536,7.493,28.109,7.493,43.29c0,21.36-5.232,41.516-14.472,59.268L274.385,212.998z"/>
	</g>
</g>
</svg>